<svg width="190" height="48" viewBox="0 0 190 48" fill="none" xmlns="http://www.w3.org/2000/svg">
<path d="M59.6973 17.6416H53.2959V35H48.1543V17.6416H41.8701V13.6719H59.6973V17.6416ZM75.1074 25.9619H67.0215V31.0449H76.5723V35H61.8799V13.6719H76.6016V17.6416H67.0215V22.1387H75.1074V25.9619ZM90.7812 31.0156H83.7354L82.5049 35H77.0117L84.834 13.6719H89.668L97.5488 35H92.0264L90.7812 31.0156ZM84.9658 27.0459H89.5508L87.251 19.6484L84.9658 27.0459ZM105.869 13.6719L110.63 28.5107L115.376 13.6719H122.144V35H116.987V30.0195L117.485 19.8242L112.329 35H108.931L103.76 19.8096L104.258 30.0195V35H99.1162V13.6719H105.869ZM145.625 26.665H147.793V30.4736H145.625V35H140.688V30.4736H132.441L132.148 27.4561L140.688 13.7158V13.6719H145.625V26.665ZM136.851 26.665H140.688V20.1025L140.381 20.6006L136.851 26.665Z" fill="url(#paint0_linear)"/>
<rect x="33.5" y="1.5" width="124" height="45" stroke="url(#paint1_linear)" stroke-width="3"/>
<defs>
<linearGradient id="paint0_linear" x1="25" y1="25" x2="175" y2="25" gradientUnits="userSpaceOnUse">
<stop stop-color="#4710A3"/>
<stop offset="1" stop-color="#2E5CFF"/>
</linearGradient>
<linearGradient id="paint1_linear" x1="32" y1="24" x2="159" y2="24" gradientUnits="userSpaceOnUse">
<stop stop-color="#4710A3"/>
<stop offset="1" stop-color="#2152FF"/>
</linearGradient>
</defs>
</svg>
